<?xml version="1.0" encoding="utf-8"?>
<!-- Generator: Adobe Illustrator 20.1.0, SVG Export Plug-In . SVG Version: 6.00 Build 0)  -->
<svg version="1.1" id="Layer_1" xmlns="http://www.w3.org/2000/svg" xmlns:xlink="http://www.w3.org/1999/xlink" x="0px" y="0px"
	 viewBox="0 0 800 1000" style="enable-background:new 0 0 800 1000;" xml:space="preserve">
<style type="text/css">
	.st0{stroke:#000000;stroke-miterlimit:10;}
	.st1{fill:#FFFFFF;stroke:#000000;stroke-miterlimit:10;}
</style>
<g>
	<path class="st0" d="M701,103c28,0,51.7,9.7,71,29s29,43,29,71v600c0,26.7-9.7,50-29,70s-43,30-71,30H101c-26.7,0-50-10-70-30
		S1,829.7,1,803V203c0-28,10-51.7,30-71s43.3-29,70-29H701z M555,741l86-86L487,503l154-154l-86-86L401,415L249,263l-88,86l154,154
		L161,655l88,86l152-152L555,741z"/>
	<polygon class="st1" points="555,741 641,655 487,503 641,349 555,263 401,415 249,263 161,349 315,503 161,655 249,741 401,589 	
		"/>
</g>
</svg>
