<?xml version="1.0" encoding="utf-8"?>
<!-- Generator: Adobe Illustrator 20.1.0, SVG Export Plug-In . SVG Version: 6.00 Build 0)  -->
<svg version="1.1" id="Layer_1" xmlns="http://www.w3.org/2000/svg" xmlns:xlink="http://www.w3.org/1999/xlink" x="0px" y="0px"
	 viewBox="0 0 1000 1000" style="enable-background:new 0 0 1000 1000;" xml:space="preserve">
<style type="text/css">
	.st0{fill:#337AB7;}
</style>
<path class="st0" d="M785.7,517.9v178.5c0,44.3-15.7,82.1-47.1,113.6c-31.4,31.5-69.3,47.2-113.6,47.1H160.7
	c-44.3,0-82.1-15.7-113.5-47.1S0.1,740.7,0,696.4V232.1c0-44.3,15.7-82.1,47.2-113.5s69.3-47.1,113.5-47.2h392.9
	c5.2,0,9.5,1.7,12.8,5.1c3.3,3.4,5,7.7,5,12.8V125c0,5.2-1.7,9.5-5,12.8c-3.3,3.3-7.6,5-12.8,5.1H160.7c-24.5,0-45.5,8.7-63,26.2
	s-26.2,38.5-26.3,63v464.3c0,24.6,8.8,45.6,26.3,63.1s38.5,26.2,63,26.2H625c24.5,0,45.6-8.7,63.1-26.2s26.3-38.5,26.2-63.1V517.9
	c0-5.3,1.7-9.6,5-12.9c3.3-3.3,7.6-5,12.8-5h35.8c5.2,0,9.5,1.7,12.8,5C784,508.3,785.7,512.6,785.7,517.9L785.7,517.9z M1000,35.7
	v285.7c0,9.7-3.5,18-10.6,25.1c-7.1,7.1-15.4,10.6-25.1,10.6c-9.7,0-18-3.5-25.1-10.6L841,248.3L477.1,612.2
	c-3.7,3.7-8,5.5-12.8,5.5s-9.1-1.8-12.8-5.5l-63.7-63.7c-3.7-3.7-5.5-7.9-5.5-12.8c0-4.9,1.8-9.1,5.5-12.8L751.7,159l-98.2-98.2
	c-7.1-7.1-10.6-15.4-10.6-25.1s3.5-18,10.6-25.1S668.9,0,678.6,0h285.7c9.7,0,18,3.5,25.1,10.6S1000,26,1000,35.7L1000,35.7z"/>
</svg>
